<svg width="32" height="32" viewBox="0 0 32 32" fill="none" xmlns="http://www.w3.org/2000/svg">
<g clip-path="url(#clip0_53_1901)">
<circle cx="16" cy="16" r="16" fill="white"/>
<path d="M23.5833 13.5455H22.695L20.8533 8.44C20.7009 8.01902 20.4239 7.65526 20.0597 7.39776C19.6955 7.14027 19.2617 7.00144 18.8167 7H17.0833C16.4875 7 16 7.49091 16 8.09091C16 8.69091 16.4875 9.18182 17.0833 9.18182H18.8167L20.3983 13.5455H15.1875L14.7975 12.4545H14.895C15.4908 12.4545 15.9783 11.9636 15.9783 11.3636C15.9783 10.7636 15.4908 10.2727 14.895 10.2727H11.6667C11.0708 10.2727 10.5833 10.7636 10.5833 11.3636C10.5833 11.9636 11.0708 12.4545 11.6667 12.4545H12.4792L14.4508 17.9091H13.725C13.2483 15.4764 11.2225 13.6764 8.6875 13.5564C5.65417 13.4036 3 15.9455 3 19C3 22.0545 5.38333 24.4545 8.41667 24.4545C11.0817 24.4545 13.2375 22.6109 13.725 20.0909H18.275C18.7517 22.5236 20.7775 24.3236 23.3125 24.4436C26.3458 24.5855 29 22.0545 29 18.9891C29 15.9455 26.6167 13.5455 23.5833 13.5455ZM9.5 20.0909H11.4717C11.0167 21.4327 9.73833 22.36 8.2 22.2618C6.58583 22.1636 5.2425 20.7891 5.16667 19.1527C5.09083 17.2436 6.5425 15.7273 8.41667 15.7273C9.8575 15.7273 11.0383 16.6327 11.4717 17.9091H9.5C8.90417 17.9091 8.41667 18.4 8.41667 19C8.41667 19.6 8.90417 20.0909 9.5 20.0909ZM18.275 17.9091H16.7583L15.9675 15.7273H19.25C18.7733 16.36 18.4267 17.0909 18.275 17.9091ZM23.4533 22.2727C21.785 22.2073 20.3767 20.7782 20.3333 19.0873C20.3117 18.04 20.7558 17.1236 21.4708 16.5127L22.1425 18.3673C22.3483 18.9345 22.9658 19.2291 23.5292 19.0218C24.0925 18.8145 24.385 18.1927 24.1792 17.6255L23.4967 15.7382L23.5075 15.7273C23.9418 15.7124 24.3747 15.7862 24.7799 15.9444C25.1851 16.1027 25.5543 16.3419 25.8651 16.6478C26.1759 16.9537 26.422 17.3198 26.5884 17.7241C26.7548 18.1283 26.8381 18.5624 26.8333 19C26.8333 20.8764 25.3383 22.3382 23.4533 22.2727Z" fill="url(#paint0_linear_53_1901)"/>
</g>
<defs>
<linearGradient id="paint0_linear_53_1901" x1="16" y1="7" x2="16" y2="24.4545" gradientUnits="userSpaceOnUse">
<stop stop-color="#FFB60D"/>
<stop offset="1" stop-color="#E59317"/>
</linearGradient>
<clipPath id="clip0_53_1901">
<rect width="32" height="32" fill="white"/>
</clipPath>
</defs>
</svg>
