<svg xmlns="http://www.w3.org/2000/svg" width="12" height="12" fill="none"><path fill="#9C9C9C" d="M9.5 3.5c0-.55-.45-1-1-1h-1c-.275 0-.5.225-.5.5s.225.5.5.5h1v1.325L6.76 7H5V5c0-.275-.225-.5-.5-.5H3a2 2 0 0 0-2 2v1c0 .275.225.5.5.5H2c0 .83.67 1.5 1.5 1.5S5 8.83 5 8h1.76c.305 0 .59-.14.78-.375L9.28 5.45c.144-.18.22-.4.22-.625V3.5Zm-6 5A.502.502 0 0 1 3 8h1c0 .275-.225.5-.5.5Z"/><path fill="#9C9C9C" d="M3 3h1.5c.275 0 .5.225.5.5s-.225.5-.5.5H3a.502.502 0 0 1-.5-.5c0-.275.225-.5.5-.5Zm6.5 3.5C8.67 6.5 8 7.17 8 8s.67 1.5 1.5 1.5c.831 0 1.5-.67 1.5-1.5s-.669-1.5-1.5-1.5Zm0 2A.502.502 0 0 1 9 8a.501.501 0 0 1 1.001 0c0 .275-.225.5-.5.5Z"/></svg>