<svg xmlns="http://www.w3.org/2000/svg" width="12" height="12" fill="none"><g clip-path="url(#a)"><path fill="#9C9C9C" d="M1 3c.274 0 .5-.225.5-.5V2c0-.275.225-.5.5-.5h.5c.274 0 .5-.225.5-.5S2.773.5 2.5.5H2C1.17.5.5 1.17.5 2v.5c0 .275.225.5.5.5Zm1.5 7.5H2a.502.502 0 0 1-.5-.5v-.5a.5.5 0 0 0-1 0v.5c0 .83.67 1.5 1.5 1.5h.5a.5.5 0 0 0 0-1ZM10 .5h-.5C9.225.5 9 .725 9 1s.225.5.5.5h.5c.275 0 .5.225.5.5v.5c0 .275.225.5.5.5s.5-.225.5-.5V2c0-.83-.67-1.5-1.5-1.5ZM11 9c-.275 0-.5.225-.5.5v.5c0 .276-.225.5-.5.5h-.5c-.275 0-.5.226-.5.5 0 .275.225.5.5.5h.5c.83 0 1.5-.67 1.5-1.5v-.5A.5.5 0 0 0 11 9ZM9.5 7.435v-2.87c0-.36-.19-.69-.5-.865L6.5 2.26a.988.988 0 0 0-1 0l-2.5 1.434c-.31.18-.5.51-.5.87v2.87c0 .36.19.69.5.865l2.5 1.44a.988.988 0 0 0 1 0L9 8.3a.99.99 0 0 0 .5-.865h-.001Zm-4 1.15-2-1.15V5.12l2 1.165v2.3Zm.5-3.165L4.02 4.265 6 3.125l1.98 1.14L6 5.42Zm2.5 2.015-2 1.15v-2.3l2-1.165v2.315Z"/></g><defs><clipPath id="a"><path fill="#fff" d="M0 0h12v12H0z"/></clipPath></defs></svg>