<svg width="54" height="54" viewBox="0 0 54 54" fill="none" xmlns="http://www.w3.org/2000/svg">
<path d="M4.15385 39.4615C4.15385 40.6086 3.22398 41.5385 2.07693 41.5385C0.929876 41.5385 5.70659e-06 40.6086 5.5454e-06 39.4615C5.38421e-06 38.3145 0.929875 37.3846 2.07693 37.3846C3.22398 37.3846 4.15385 38.3145 4.15385 39.4615Z" fill="#808080" fill-opacity="0.3"/>
<path d="M4.15385 51.9231C4.15385 53.0701 3.22398 54 2.07693 54C0.929878 54 7.45777e-06 53.0701 7.29658e-06 51.9231C7.13539e-06 50.776 0.929877 49.8462 2.07693 49.8462C3.22398 49.8462 4.15385 50.776 4.15385 51.9231Z" fill="#808080" fill-opacity="0.3"/>
<path d="M16.6154 14.5385C16.6154 15.6855 15.6855 16.6154 14.5385 16.6154C13.3914 16.6154 12.4615 15.6855 12.4615 14.5385C12.4615 13.3914 13.3914 12.4615 14.5385 12.4615C15.6855 12.4615 16.6154 13.3914 16.6154 14.5385Z" fill="#808080" fill-opacity="0.3"/>
<path d="M16.6154 27C16.6154 28.1471 15.6855 29.0769 14.5385 29.0769C13.3914 29.0769 12.4615 28.1471 12.4615 27C12.4615 25.8529 13.3914 24.9231 14.5385 24.9231C15.6855 24.9231 16.6154 25.8529 16.6154 27Z" fill="#808080" fill-opacity="0.3"/>
<path d="M16.6154 39.4615C16.6154 40.6086 15.6855 41.5385 14.5385 41.5385C13.3914 41.5385 12.4615 40.6086 12.4615 39.4615C12.4615 38.3145 13.3914 37.3846 14.5385 37.3846C15.6855 37.3846 16.6154 38.3145 16.6154 39.4615Z" fill="#808080" fill-opacity="0.3"/>
<path d="M16.6154 51.9231C16.6154 53.0701 15.6855 54 14.5385 54C13.3914 54 12.4615 53.0701 12.4615 51.9231C12.4615 50.776 13.3914 49.8462 14.5385 49.8462C15.6855 49.8462 16.6154 50.776 16.6154 51.9231Z" fill="#808080" fill-opacity="0.3"/>
<path d="M29.0769 14.5385C29.0769 15.6855 28.1471 16.6154 27 16.6154C25.853 16.6154 24.9231 15.6855 24.9231 14.5385C24.9231 13.3914 25.8529 12.4615 27 12.4615C28.1471 12.4615 29.0769 13.3914 29.0769 14.5385Z" fill="#808080" fill-opacity="0.3"/>
<path d="M29.0769 27C29.0769 28.1471 28.1471 29.0769 27 29.0769C25.853 29.0769 24.9231 28.1471 24.9231 27C24.9231 25.8529 25.853 24.9231 27 24.9231C28.1471 24.9231 29.0769 25.8529 29.0769 27Z" fill="#808080" fill-opacity="0.3"/>
<path d="M29.0769 39.4615C29.0769 40.6086 28.1471 41.5385 27 41.5385C25.853 41.5385 24.9231 40.6086 24.9231 39.4615C24.9231 38.3145 25.853 37.3846 27 37.3846C28.1471 37.3846 29.0769 38.3145 29.0769 39.4615Z" fill="#808080" fill-opacity="0.3"/>
<path d="M29.0769 51.9231C29.0769 53.0701 28.1471 54 27 54C25.853 54 24.9231 53.0701 24.9231 51.9231C24.9231 50.776 25.853 49.8462 27 49.8462C28.1471 49.8462 29.0769 50.776 29.0769 51.9231Z" fill="#808080" fill-opacity="0.3"/>
<path d="M41.5385 2.07692C41.5385 3.22397 40.6086 4.15384 39.4615 4.15384C38.3145 4.15384 37.3846 3.22397 37.3846 2.07692C37.3846 0.929868 38.3145 -2.08379e-06 39.4615 -2.14617e-06C40.6086 -2.20856e-06 41.5385 0.929868 41.5385 2.07692Z" fill="#808080" fill-opacity="0.3"/>
<path d="M41.5385 14.5385C41.5385 15.6855 40.6086 16.6154 39.4615 16.6154C38.3145 16.6154 37.3846 15.6855 37.3846 14.5385C37.3846 13.3914 38.3145 12.4615 39.4615 12.4615C40.6086 12.4615 41.5385 13.3914 41.5385 14.5385Z" fill="#808080" fill-opacity="0.3"/>
<path d="M41.5385 27C41.5385 28.1471 40.6086 29.0769 39.4615 29.0769C38.3145 29.0769 37.3846 28.1471 37.3846 27C37.3846 25.8529 38.3145 24.9231 39.4615 24.9231C40.6086 24.9231 41.5385 25.8529 41.5385 27Z" fill="#808080" fill-opacity="0.3"/>
<path d="M41.5385 39.4615C41.5385 40.6086 40.6086 41.5385 39.4615 41.5385C38.3145 41.5385 37.3846 40.6086 37.3846 39.4615C37.3846 38.3145 38.3145 37.3846 39.4615 37.3846C40.6086 37.3846 41.5385 38.3145 41.5385 39.4615Z" fill="#808080" fill-opacity="0.3"/>
<path d="M41.5385 51.9231C41.5385 53.0701 40.6086 54 39.4615 54C38.3145 54 37.3846 53.0701 37.3846 51.9231C37.3846 50.776 38.3145 49.8462 39.4615 49.8462C40.6086 49.8462 41.5385 50.776 41.5385 51.9231Z" fill="#808080" fill-opacity="0.3"/>
<path d="M54 2.07692C54 3.22397 53.0701 4.15384 51.9231 4.15384C50.776 4.15384 49.8462 3.22397 49.8462 2.07692C49.8462 0.929867 50.776 -2.76153e-06 51.9231 -2.82391e-06C53.0701 -2.88629e-06 54 0.929867 54 2.07692Z" fill="#808080" fill-opacity="0.3"/>
<path d="M54 14.5385C54 15.6855 53.0701 16.6154 51.9231 16.6154C50.776 16.6154 49.8462 15.6855 49.8462 14.5385C49.8462 13.3914 50.776 12.4615 51.9231 12.4615C53.0701 12.4615 54 13.3914 54 14.5385Z" fill="#808080" fill-opacity="0.3"/>
<path d="M54 27C54 28.1471 53.0701 29.0769 51.9231 29.0769C50.776 29.0769 49.8462 28.1471 49.8462 27C49.8462 25.8529 50.776 24.9231 51.9231 24.9231C53.0701 24.9231 54 25.8529 54 27Z" fill="#808080" fill-opacity="0.3"/>
<path d="M54 39.4615C54 40.6086 53.0701 41.5385 51.9231 41.5385C50.776 41.5385 49.8462 40.6086 49.8462 39.4615C49.8462 38.3145 50.776 37.3846 51.9231 37.3846C53.0701 37.3846 54 38.3145 54 39.4615Z" fill="#808080" fill-opacity="0.3"/>
<path d="M54 51.9231C54 53.0701 53.0701 54 51.9231 54C50.776 54 49.8462 53.0701 49.8462 51.9231C49.8462 50.776 50.776 49.8462 51.9231 49.8462C53.0701 49.8462 54 50.776 54 51.9231Z" fill="#808080" fill-opacity="0.3"/>
</svg>
