<svg xmlns="http://www.w3.org/2000/svg" width="54" height="54" fill="none"><path fill="gray" fill-opacity=".3" d="M4.154 39.462a2.077 2.077 0 1 1-4.154 0 2.077 2.077 0 0 1 4.154 0ZM4.154 51.923a2.077 2.077 0 1 1-4.154 0 2.077 2.077 0 0 1 4.154 0ZM16.615 14.539a2.077 2.077 0 1 1-4.154 0 2.077 2.077 0 0 1 4.154 0ZM16.615 27a2.077 2.077 0 1 1-4.153 0 2.077 2.077 0 0 1 4.153 0ZM16.615 39.462a2.077 2.077 0 1 1-4.154 0 2.077 2.077 0 0 1 4.154 0ZM16.615 51.923a2.077 2.077 0 1 1-4.154 0 2.077 2.077 0 0 1 4.154 0ZM29.077 14.539a2.077 2.077 0 1 1-4.154 0 2.077 2.077 0 0 1 4.154 0ZM29.077 27a2.077 2.077 0 1 1-4.154 0 2.077 2.077 0 0 1 4.154 0ZM29.077 39.462a2.077 2.077 0 1 1-4.154 0 2.077 2.077 0 0 1 4.154 0ZM29.077 51.923a2.077 2.077 0 1 1-4.154 0 2.077 2.077 0 0 1 4.154 0ZM41.538 2.077a2.077 2.077 0 1 1-4.153 0 2.077 2.077 0 0 1 4.154 0ZM41.538 14.539a2.077 2.077 0 1 1-4.153 0 2.077 2.077 0 0 1 4.154 0ZM41.538 27a2.077 2.077 0 1 1-4.153 0 2.077 2.077 0 0 1 4.154 0ZM41.538 39.462a2.077 2.077 0 1 1-4.153 0 2.077 2.077 0 0 1 4.154 0ZM41.538 51.923a2.077 2.077 0 1 1-4.153 0 2.077 2.077 0 0 1 4.154 0ZM54 2.077a2.077 2.077 0 1 1-4.154 0 2.077 2.077 0 0 1 4.154 0ZM54 14.539a2.077 2.077 0 1 1-4.154 0 2.077 2.077 0 0 1 4.154 0ZM54 27a2.077 2.077 0 1 1-4.154 0A2.077 2.077 0 0 1 54 27ZM54 39.462a2.077 2.077 0 1 1-4.154 0 2.077 2.077 0 0 1 4.154 0ZM54 51.923a2.077 2.077 0 1 1-4.154 0 2.077 2.077 0 0 1 4.154 0Z"/></svg>