<svg width="32" height="32" viewBox="0 0 32 32" fill="none" xmlns="http://www.w3.org/2000/svg">
<path d="M22.6665 22.6533C20.8665 22.6533 19.7332 23.2133 18.7332 23.72C17.8665 24.16 17.1598 24.52 15.9998 24.52C14.7998 24.52 14.1332 24.1867 13.2665 23.72C12.2665 23.2133 11.1732 22.6533 9.33317 22.6533C7.49317 22.6533 6.39984 23.2133 5.39984 23.72C4.8265 24.0133 4.31984 24.2667 3.7065 24.4133C3.1065 24.5467 2.6665 25.0267 2.6665 25.6267V25.76C2.6665 26.56 3.41317 27.1333 4.1865 26.9733C5.17317 26.7733 5.91984 26.4 6.59984 26.0533C7.4665 25.6133 8.15984 25.2533 9.33317 25.2533C10.5065 25.2533 11.1998 25.5867 12.0665 26.0533C13.0665 26.56 14.1598 27.12 15.9998 27.12C17.8398 27.12 18.9332 26.56 19.9332 26.0533C20.7998 25.6133 21.5065 25.2533 22.6665 25.2533C23.8665 25.2533 24.5332 25.5867 25.3998 26.0533C26.0932 26.4 26.8398 26.7867 27.8398 26.9867C28.02 27.0218 28.2056 27.017 28.3837 26.9725C28.5617 26.9281 28.7279 26.845 28.8703 26.7293C29.0127 26.6135 29.128 26.4679 29.208 26.3028C29.288 26.1376 29.3307 25.9568 29.3332 25.7733V25.6533C29.3332 25.04 28.8798 24.56 28.2798 24.4267C27.6665 24.2933 27.1732 24.04 26.5998 23.7333C25.5998 23.2133 24.4665 22.6533 22.6665 22.6533ZM22.6665 16.72C20.8665 16.72 19.7332 17.2933 18.7332 17.7867C17.8665 18.2133 17.1598 18.5867 15.9998 18.5867C14.7998 18.5867 14.1332 18.2533 13.2665 17.7867C12.2665 17.28 11.1732 16.72 9.33317 16.72C7.49317 16.72 6.39984 17.2933 5.39984 17.7867C4.8265 18.0667 4.31984 18.3333 3.69317 18.48C3.1065 18.6133 2.6665 19.0933 2.6665 19.6933V19.8267C2.66658 20.011 2.70773 20.1929 2.78697 20.3593C2.86621 20.5257 2.98154 20.6723 3.12457 20.7885C3.2676 20.9048 3.43474 20.9876 3.61382 21.0311C3.7929 21.0746 3.97943 21.0777 4.15984 21.04C5.15984 20.84 5.9065 20.4533 6.59984 20.12C7.4665 19.6533 8.13317 19.32 9.33317 19.32C10.5332 19.32 11.1998 19.6533 12.0665 20.12C13.0665 20.6267 14.1598 21.1867 15.9998 21.1867C17.8398 21.1867 18.9332 20.6133 19.9332 20.12C20.7998 19.6533 21.4665 19.32 22.6665 19.32C23.8665 19.32 24.5332 19.6533 25.3998 20.12C26.0932 20.4667 26.8398 20.8533 27.8398 21.0533C28.0211 21.0887 28.2079 21.0836 28.3869 21.0383C28.5659 20.9931 28.7327 20.9089 28.8754 20.7917C29.0181 20.6745 29.1331 20.5272 29.2122 20.3604C29.2914 20.1936 29.3327 20.0113 29.3332 19.8267V19.7067C29.3332 19.0933 28.8798 18.6133 28.2798 18.48C27.6665 18.3467 27.1732 18.0933 26.5998 17.7867C25.5998 17.28 24.4665 16.72 22.6665 16.72ZM26.5998 5.94667C25.5998 5.44 24.4932 4.88 22.6665 4.88C20.8398 4.88 19.7332 5.44 18.7332 5.94667C17.8665 6.37334 17.1598 6.74667 15.9998 6.74667C14.7998 6.74667 14.1332 6.41334 13.2665 5.94667C12.2665 5.45334 11.1732 4.88 9.33317 4.88C7.49317 4.88 6.39984 5.44 5.39984 5.94667C4.8265 6.24 4.31984 6.49334 3.7065 6.64C3.1065 6.77334 2.6665 7.25334 2.6665 7.85334V7.94667C2.6665 8.74667 3.3865 9.33334 4.15984 9.17334C5.15984 8.97334 5.9065 8.58667 6.59984 8.25334C7.4665 7.81334 8.15984 7.45334 9.33317 7.45334C10.5065 7.45334 11.1998 7.78667 12.0665 8.25334C13.0665 8.76 14.1598 9.32 15.9998 9.32C17.8398 9.32 18.9332 8.74667 19.9332 8.25334C20.7998 7.82667 21.5065 7.45334 22.6665 7.45334C23.8665 7.45334 24.5332 7.78667 25.3998 8.25334C26.0932 8.6 26.8398 8.98667 27.8398 9.18667C28.0211 9.22203 28.2079 9.21691 28.3869 9.17168C28.5659 9.12644 28.7327 9.04222 28.8754 8.92502C29.0181 8.80782 29.1331 8.66054 29.2122 8.49372C29.2914 8.32689 29.3327 8.14465 29.3332 7.96V7.84C29.3332 7.22667 28.8798 6.74667 28.2798 6.61334C27.6665 6.48 27.1732 6.24 26.5998 5.94667ZM22.6665 10.7867C20.8665 10.7867 19.7332 11.36 18.7332 11.8533C17.8665 12.32 17.1998 12.6533 15.9998 12.6533C14.7998 12.6533 14.1332 12.32 13.2665 11.8533C12.2665 11.3467 11.1732 10.7867 9.33317 10.7867C7.49317 10.7867 6.39984 11.36 5.39984 11.8533C4.8265 12.16 4.33317 12.4133 3.71984 12.5467C3.11984 12.68 2.6665 13.16 2.6665 13.7733V13.8933C2.66658 14.0776 2.70773 14.2596 2.78697 14.426C2.86621 14.5924 2.98154 14.739 3.12457 14.8552C3.2676 14.9714 3.43474 15.0543 3.61382 15.0978C3.7929 15.1413 3.97943 15.1443 4.15984 15.1067C5.15984 14.9067 5.9065 14.52 6.59984 14.1867C7.4665 13.76 8.17317 13.3867 9.33317 13.3867C10.4932 13.3867 11.1998 13.72 12.0665 14.1867C13.0665 14.6933 14.1598 15.2533 15.9998 15.2533C17.8398 15.2533 18.9332 14.68 19.9332 14.1867C20.7998 13.76 21.5065 13.3867 22.6665 13.3867C23.8665 13.3867 24.5332 13.72 25.3998 14.1867C26.0932 14.5333 26.8398 14.92 27.8398 15.12C28.02 15.1552 28.2056 15.1503 28.3837 15.1059C28.5617 15.0614 28.7279 14.9783 28.8703 14.8626C29.0127 14.7469 29.128 14.6013 29.208 14.4361C29.288 14.2709 29.3307 14.0902 29.3332 13.9067V13.7867C29.3332 13.1733 28.8798 12.6933 28.2798 12.56C27.6665 12.4267 27.1732 12.1733 26.5998 11.8667C25.5998 11.3467 24.4665 10.7867 22.6665 10.7867Z" fill="url(#paint0_linear_46_889)"/>
<defs>
<linearGradient id="paint0_linear_46_889" x1="15.9998" y1="4.88" x2="15.9998" y2="27.12" gradientUnits="userSpaceOnUse">
<stop stop-color="#FFBF00"/>
<stop offset="1" stop-color="#F2A60C"/>
</linearGradient>
</defs>
</svg>
