<svg width="24" height="24" viewBox="0 0 24 24" fill="none" xmlns="http://www.w3.org/2000/svg">
<path d="M20 3.99957H3.9992C2.9 3.99957 2.0096 4.89957 2.0096 5.99997L2 18C2 19.1004 2.9 20.0004 3.9992 20.0004H20C21.0992 20.0004 21.9992 19.1004 21.9992 18V5.99997C21.9992 4.89957 21.0992 3.99957 20 3.99957ZM19.5992 8.24997L12.53 12.6708C12.3705 12.769 12.1869 12.821 11.9996 12.821C11.8123 12.821 11.6287 12.769 11.4692 12.6708L4.4 8.24997C4.30112 8.19298 4.21475 8.11665 4.14602 8.02554C4.07729 7.93443 4.02762 7.83041 3.99998 7.71969C3.97233 7.60896 3.96728 7.4938 3.98512 7.38108C4.00296 7.26836 4.04333 7.16039 4.10382 7.06361C4.1643 6.96683 4.24367 6.88323 4.33717 6.8178C4.43068 6.75237 4.53641 6.70645 4.64805 6.68277C4.75969 6.6591 4.87496 6.65816 4.98697 6.68002C5.09898 6.70187 5.20544 6.74607 5.3 6.80997L11.9996 11.0004L18.6992 6.80997C18.7938 6.74607 18.9002 6.70187 19.0122 6.68002C19.1242 6.65816 19.2395 6.6591 19.3512 6.68277C19.4628 6.70645 19.5685 6.75237 19.662 6.8178C19.7555 6.88323 19.8349 6.96683 19.8954 7.06361C19.9559 7.16039 19.9962 7.26836 20.0141 7.38108C20.0319 7.4938 20.0269 7.60896 19.9992 7.71969C19.9716 7.83041 19.9219 7.93443 19.8532 8.02554C19.7845 8.11665 19.6981 8.19298 19.5992 8.24997Z" fill="url(#paint0_linear_48_254)"/>
<defs>
<linearGradient id="paint0_linear_48_254" x1="11.9996" y1="3.99957" x2="11.9996" y2="20.0004" gradientUnits="userSpaceOnUse">
<stop stop-color="#FFBF00"/>
<stop offset="1" stop-color="#F2A60C"/>
</linearGradient>
</defs>
</svg>
