<svg width="12" height="12" viewBox="0 0 12 12" fill="none" xmlns="http://www.w3.org/2000/svg">
<path d="M9.50001 3.50024C9.50001 2.95049 9.05001 2.50049 8.50026 2.50049H7.50051C7.22526 2.50049 7.00026 2.72549 7.00026 2.99999C7.00026 3.27524 7.22526 3.50024 7.50051 3.50024H8.50026V4.82549L6.76026 7.00049H5.00001V5.00024C5.00001 4.72499 4.77501 4.49999 4.50051 4.49999H2.99976C2.73706 4.49989 2.47691 4.55156 2.23418 4.65205C1.99146 4.75253 1.77091 4.89987 1.58515 5.08563C1.39939 5.27139 1.25206 5.49193 1.15157 5.73466C1.05108 5.97739 0.999413 6.23753 0.999512 6.50024V7.49999C0.999512 7.77524 1.22451 8.00024 1.49976 8.00024H1.99926C1.99926 8.83049 2.66976 9.50024 3.49926 9.50024C4.32951 9.50024 4.99926 8.83049 4.99926 8.00024H6.75951C7.06476 8.00024 7.34976 7.85999 7.53951 7.62524L9.27951 5.45024C9.42426 5.27024 9.49926 5.04974 9.49926 4.82549L9.50001 3.50024ZM3.50001 8.50049C3.36759 8.49989 3.24077 8.44698 3.1472 8.35327C3.05364 8.25956 3.00091 8.13266 3.00051 8.00024H4.00026C4.00026 8.27549 3.77526 8.50049 3.50001 8.50049Z" fill="#9C9C9C"/>
<path d="M2.99976 3H4.49976C4.77501 3 5.00001 3.225 5.00001 3.50025C5.00001 3.77475 4.77501 3.99975 4.50051 3.99975H2.99976C2.86734 3.99936 2.74044 3.94663 2.64673 3.85306C2.55302 3.75949 2.5001 3.63267 2.49951 3.50025C2.49951 3.225 2.72451 3 2.99976 3ZM9.50076 6.4995C8.67051 6.4995 8.00076 7.17 8.00076 7.9995C8.00076 8.82975 8.67051 9.4995 9.50076 9.4995C10.331 9.4995 11.0008 8.82975 11.0008 7.9995C11.0008 7.17 10.331 6.4995 9.50076 6.4995ZM9.50076 8.49975C9.36821 8.49935 9.2412 8.44652 9.14747 8.35279C9.05374 8.25906 9.00091 8.13205 9.00051 7.9995C9.00051 7.725 9.22551 7.5 9.50076 7.5C9.77601 7.5 10.001 7.725 10.001 7.9995C10.001 8.27475 9.77601 8.49975 9.50076 8.49975Z" fill="#9C9C9C"/>
</svg>
