<svg width="12" height="12" viewBox="0 0 12 12" fill="none" xmlns="http://www.w3.org/2000/svg">
<g clip-path="url(#clip0_46_543)">
<path d="M0.999762 2.99999C1.27426 2.99999 1.49926 2.77499 1.49926 2.50049V2.00024C1.50001 1.72499 1.72501 1.49999 1.99951 1.49999H2.49976C2.77426 1.49999 2.99926 1.27499 2.99926 1.00049C2.99926 0.725244 2.77426 0.500244 2.49976 0.500244H1.99951C1.16926 0.500244 0.499512 1.16999 0.499512 2.00024V2.50049C0.499512 2.77499 0.724512 2.99999 0.999762 2.99999ZM2.49976 10.5H1.99951C1.86709 10.4996 1.74019 10.4469 1.64648 10.3533C1.55277 10.2597 1.49985 10.1329 1.49926 10.0005V9.50024C1.49926 9.22499 1.27426 9.00074 0.999762 9.00074C0.724512 9.00074 0.499512 9.22574 0.499512 9.50024V10.0005C0.499512 10.8307 1.16926 11.5005 1.99951 11.5005H2.49976C2.77426 11.5005 2.99926 11.2755 2.99926 11.0002C2.99926 10.725 2.77426 10.5007 2.49976 10.5007V10.5ZM9.99976 0.500244H9.50026C9.22501 0.500244 9.00001 0.725244 9.00001 1.00049C9.00001 1.27499 9.22501 1.49999 9.50026 1.49999H9.99976C10.275 1.49999 10.5 1.72499 10.5 2.00024V2.50049C10.5 2.77499 10.725 2.99999 11.0003 2.99999C11.2748 2.99999 11.4998 2.77499 11.4998 2.50049V2.00024C11.4998 1.16999 10.83 0.500244 9.99976 0.500244ZM11.0003 8.99999C10.725 8.99999 10.5 9.22499 10.5 9.50024V10.0005C10.5 10.2757 10.275 10.5007 9.99976 10.5007H9.50026C9.22501 10.5007 9.00001 10.7257 9.00001 11.0002C9.00001 11.2755 9.22501 11.5005 9.50026 11.5005H9.99976C10.83 11.5005 11.4998 10.8307 11.4998 10.0005V9.50024C11.4998 9.22499 11.2748 9.00074 11.0003 9.00074V8.99999ZM9.49876 7.43549V4.56524C9.49876 4.20524 9.30901 3.87524 8.99926 3.70049L6.49876 2.26049C6.34719 2.17156 6.17463 2.12467 5.99889 2.12467C5.82315 2.12467 5.65059 2.17156 5.49901 2.26049L2.99926 3.69449C2.68876 3.87449 2.49901 4.20449 2.49901 4.56449V7.43474C2.49901 7.79474 2.68876 8.12474 2.99926 8.29949L5.49901 9.73949C5.65059 9.82843 5.82315 9.87532 5.99889 9.87532C6.17463 9.87532 6.34719 9.82843 6.49876 9.73949L9.00001 8.30024C9.15244 8.21331 9.27902 8.08741 9.36679 7.93546C9.45456 7.78352 9.50036 7.61097 9.49951 7.43549H9.49876ZM5.49901 8.58524L3.49876 7.43549V5.12024L5.49901 6.28499V8.58524ZM5.99926 5.42024L4.01926 4.26524L5.99926 3.12524L7.97926 4.26524L5.99926 5.42024ZM8.49901 7.43549L6.49876 8.58524V6.28499L8.49901 5.12024V7.43549Z" fill="#9C9C9C"/>
</g>
<defs>
<clipPath id="clip0_46_543">
<rect width="12" height="12" fill="white"/>
</clipPath>
</defs>
</svg>
