<svg width="24" height="24" viewBox="0 0 24 24" fill="none" xmlns="http://www.w3.org/2000/svg">
<path d="M12.0004 2.0004C7.8004 2.0004 4 5.22 4 10.2C4 13.38 6.4504 17.1204 11.3404 21.4296C11.5252 21.589 11.7611 21.6768 12.0052 21.6768C12.2493 21.6768 12.4852 21.589 12.67 21.4296C17.5504 17.1204 20.0008 13.38 20.0008 10.2C20.0008 5.22 16.2004 2.0004 12.0004 2.0004ZM12.0004 12C10.9 12 10 11.1 10 9.9996C10 8.8992 10.9 7.9992 12.0004 7.9992C13.1008 7.9992 14.0008 8.8992 14.0008 9.9996C14.0008 11.1 13.1008 12 12.0004 12Z" fill="url(#paint0_linear_48_258)"/>
<defs>
<linearGradient id="paint0_linear_48_258" x1="12.0004" y1="2.0004" x2="12.0004" y2="21.6768" gradientUnits="userSpaceOnUse">
<stop stop-color="#FFBF00"/>
<stop offset="1" stop-color="#F2A60C"/>
</linearGradient>
</defs>
</svg>
